<svg width="19" height="19" viewBox="0 0 19 19" fill="none" xmlns="http://www.w3.org/2000/svg">
<path d="M13.0549 8.38748V6.8972C13.0549 4.83956 11.3868 3.17151 9.32916 3.17151C7.27152 3.17151 5.60347 4.83956 5.60347 6.8972V8.38748M9.32916 11.7406V13.2309M6.94472 16.584H11.7136C12.9656 16.584 13.5915 16.584 14.0697 16.3404C14.4903 16.126 14.8323 15.7841 15.0466 15.3634C15.2903 14.8853 15.2903 14.2593 15.2903 13.0073V11.9641C15.2903 10.7122 15.2903 10.0862 15.0466 9.60804C14.8323 9.18742 14.4903 8.84544 14.0697 8.63113C13.5915 8.38748 12.9656 8.38748 11.7136 8.38748H6.94472C5.69277 8.38748 5.06679 8.38748 4.58861 8.63113C4.16799 8.84544 3.82601 9.18742 3.6117 9.60804C3.36805 10.0862 3.36805 10.7122 3.36805 11.9641V13.0073C3.36805 14.2593 3.36805 14.8853 3.6117 15.3634C3.82601 15.7841 4.16799 16.126 4.58861 16.3404C5.06679 16.584 5.69277 16.584 6.94472 16.584Z" stroke="#415BE7" stroke-width="1.11771" stroke-linecap="round" stroke-linejoin="round"/>
</svg>
