<svg width="16" height="16" viewBox="0 0 16 16" fill="none" xmlns="http://www.w3.org/2000/svg">
<path d="M13.1218 5.19692L7.84376 8.12918M7.84376 8.12918L2.56569 5.19692M7.84376 8.12918L7.84378 14.0282M13.4323 10.6493V5.60904C13.4323 5.39627 13.4323 5.28989 13.401 5.19501C13.3732 5.11107 13.3279 5.03403 13.268 4.96902C13.2003 4.89554 13.1073 4.84387 12.9213 4.74055L8.32627 2.18776C8.15017 2.08992 8.06212 2.041 7.96887 2.02182C7.88634 2.00485 7.80122 2.00485 7.71869 2.02182C7.62544 2.041 7.53738 2.08992 7.36128 2.18776L2.76626 4.74055C2.58027 4.84388 2.48727 4.89554 2.41956 4.96902C2.35965 5.03403 2.31432 5.11108 2.28658 5.19501C2.25523 5.28989 2.25523 5.39628 2.25523 5.60904V10.6493C2.25523 10.8621 2.25523 10.9685 2.28658 11.0634C2.31432 11.1473 2.35965 11.2244 2.41956 11.2894C2.48727 11.3629 2.58027 11.4145 2.76626 11.5178L7.36128 14.0706C7.53739 14.1685 7.62544 14.2174 7.71869 14.2366C7.80122 14.2535 7.88634 14.2535 7.96887 14.2366C8.06212 14.2174 8.15017 14.1685 8.32627 14.0706L12.9213 11.5178C13.1073 11.4145 13.2003 11.3629 13.268 11.2894C13.3279 11.2244 13.3732 11.1473 13.401 11.0634C13.4323 10.9685 13.4323 10.8621 13.4323 10.6493Z" stroke="#818EA2" stroke-width="1.11771" stroke-linecap="round" stroke-linejoin="round"/>
<path d="M10.638 6.57681L5.0495 3.47206" stroke="#818EA2" stroke-width="1.11771" stroke-linecap="round" stroke-linejoin="round"/>
</svg>
