<svg width="16" height="16" viewBox="0 0 16 16" fill="none" xmlns="http://www.w3.org/2000/svg">
<path d="M9.04165 9.83676H8.42071C8.16612 9.83676 7.95499 9.62564 7.95499 9.37105C7.95499 9.11646 8.16612 8.90534 8.42071 8.90534H9.04165C9.47011 8.90534 9.81784 8.55761 9.81784 8.12915V2.38537H4.69501C3.96229 2.38537 3.29165 2.78277 2.9315 3.42235C2.80731 3.64589 2.5217 3.72664 2.29816 3.60245C2.07461 3.47826 1.99387 3.19261 2.11806 2.96907C2.63965 2.03764 3.62698 1.45395 4.69501 1.45395H10.2836C10.5381 1.45395 10.7493 1.66507 10.7493 1.91966V8.12915C10.7493 9.07299 9.9855 9.83676 9.04165 9.83676Z" fill="#415BE7"/>
<path d="M12.7675 13.5625H12.1465C11.8919 13.5625 11.6808 13.3513 11.6808 13.0968C11.6808 12.6683 11.3331 12.3206 10.9046 12.3206C10.4762 12.3206 10.1284 12.6683 10.1284 13.0968C10.1284 13.3513 9.91733 13.5625 9.66274 13.5625H7.17894C6.92435 13.5625 6.71323 13.3513 6.71323 13.0968C6.71323 12.6683 6.3655 12.3206 5.93704 12.3206C5.50859 12.3206 5.16086 12.6683 5.16086 13.0968C5.16086 13.3513 4.94973 13.5625 4.69514 13.5625H4.0742C2.78883 13.5625 1.74564 12.5193 1.74564 11.2339C1.74564 10.9793 1.95676 10.7682 2.21135 10.7682C2.46594 10.7682 2.67706 10.9793 2.67706 11.2339C2.67706 12.0039 3.30422 12.631 4.0742 12.631H4.29151C4.49643 11.9169 5.15465 11.3891 5.93704 11.3891C6.71944 11.3891 7.37766 11.9169 7.58257 12.631H9.26532C9.47023 11.9169 10.1285 11.3891 10.9109 11.3891C11.6932 11.3891 12.3514 11.9169 12.5563 12.631H12.7675C13.5375 12.631 14.1646 12.0039 14.1646 11.2339V9.83677H12.7675C12.1714 9.83677 11.6808 9.34622 11.6808 8.75011V6.88726C11.6808 6.29115 12.1652 5.8006 12.7675 5.8006L12.1031 4.63943C11.9665 4.39726 11.7057 4.24823 11.4262 4.24823H10.7494V8.12916C10.7494 9.073 9.98563 9.83677 9.04179 9.83677H8.42084C8.16625 9.83677 7.95513 9.62565 7.95513 9.37106C7.95513 9.11647 8.16625 8.90534 8.42084 8.90534H9.04179C9.47024 8.90534 9.81797 8.55761 9.81797 8.12916V3.78251C9.81797 3.52793 10.0291 3.3168 10.2837 3.3168H11.4262C12.041 3.3168 12.606 3.64592 12.9103 4.17993L13.9721 6.03656C14.0528 6.17938 14.0528 6.35946 13.9721 6.50227C13.8914 6.64509 13.7361 6.73202 13.5685 6.73202H12.7675C12.6805 6.73202 12.6122 6.80033 12.6122 6.88726V8.75011C12.6122 8.83704 12.6805 8.90534 12.7675 8.90534H14.6303C14.8849 8.90534 15.096 9.11647 15.096 9.37106V11.2339C15.096 12.5193 14.0528 13.5625 12.7675 13.5625Z" fill="#415BE7"/>
<path d="M5.93704 14.8043C4.9932 14.8043 4.22943 14.0406 4.22943 13.0967C4.22943 12.1529 4.9932 11.3891 5.93704 11.3891C6.88088 11.3891 7.64465 12.1529 7.64465 13.0967C7.64465 14.0406 6.88088 14.8043 5.93704 14.8043ZM5.93704 12.3206C5.50859 12.3206 5.16085 12.6683 5.16085 13.0967C5.16085 13.5252 5.50859 13.8729 5.93704 13.8729C6.3655 13.8729 6.71323 13.5252 6.71323 13.0967C6.71323 12.6683 6.3655 12.3206 5.93704 12.3206Z" fill="#415BE7"/>
<path d="M10.9046 14.8043C9.96079 14.8043 9.19702 14.0406 9.19702 13.0967C9.19702 12.1529 9.96079 11.3891 10.9046 11.3891C11.8485 11.3891 12.6122 12.1529 12.6122 13.0967C12.6122 14.0406 11.8485 14.8043 10.9046 14.8043ZM10.9046 12.3206C10.4762 12.3206 10.1284 12.6683 10.1284 13.0967C10.1284 13.5252 10.4762 13.8729 10.9046 13.8729C11.3331 13.8729 11.6808 13.5252 11.6808 13.0967C11.6808 12.6683 11.3331 12.3206 10.9046 12.3206Z" fill="#415BE7"/>
<path d="M14.6303 9.83677H12.7675C12.1714 9.83677 11.6808 9.34622 11.6808 8.75011V6.88726C11.6808 6.29115 12.1714 5.8006 12.7675 5.8006H13.5685C13.7361 5.8006 13.8914 5.88753 13.9721 6.03656L15.034 7.89941C15.0712 7.96771 15.096 8.04843 15.096 8.12916V9.37106C15.096 9.62564 14.8849 9.83677 14.6303 9.83677ZM12.7675 6.73202C12.6805 6.73202 12.6122 6.80033 12.6122 6.88726V8.75011C12.6122 8.83704 12.6805 8.90534 12.7675 8.90534H14.1646V8.25335L13.2953 6.73202H12.7675Z" fill="#415BE7"/>
<path d="M5.93704 6.11107H2.21135C1.95676 6.11107 1.74564 5.89994 1.74564 5.64535C1.74564 5.39076 1.95676 5.17964 2.21135 5.17964H5.93704C6.19163 5.17964 6.40275 5.39076 6.40275 5.64535C6.40275 5.89994 6.19163 6.11107 5.93704 6.11107Z" fill="#415BE7"/>
<path d="M4.69514 7.97392H2.21135C1.95676 7.97392 1.74564 7.7628 1.74564 7.50821C1.74564 7.25362 1.95676 7.0425 2.21135 7.0425H4.69514C4.94973 7.0425 5.16086 7.25362 5.16086 7.50821C5.16086 7.7628 4.94973 7.97392 4.69514 7.97392Z" fill="#415BE7"/>
<path d="M3.45325 9.83676H2.21135C1.95676 9.83676 1.74564 9.62564 1.74564 9.37105C1.74564 9.11646 1.95676 8.90533 2.21135 8.90533H3.45325C3.70784 8.90533 3.91896 9.11646 3.91896 9.37105C3.91896 9.62564 3.70784 9.83676 3.45325 9.83676Z" fill="#415BE7"/>
</svg>
