<svg width="19" height="19" viewBox="0 0 19 19" fill="none" xmlns="http://www.w3.org/2000/svg">
<path d="M16.1812 8.68155C16.4718 8.68155 16.7028 8.45055 16.7028 8.15995V7.46697C16.7028 4.4119 15.7713 3.48048 12.7163 3.48048H5.78647C2.7314 3.48048 1.79997 4.4119 1.79997 7.46697V7.81719C1.79997 8.10779 2.03097 8.33878 2.32157 8.33878C2.99219 8.33878 3.53615 8.88273 3.53615 9.55336C3.53615 10.224 2.99219 10.7605 2.32157 10.7605C2.03097 10.7605 1.79997 10.9915 1.79997 11.2821V11.6323C1.79997 14.6874 2.7314 15.6188 5.78647 15.6188H12.7163C15.7713 15.6188 16.7028 14.6874 16.7028 11.6323C16.7028 11.3417 16.4718 11.1107 16.1812 11.1107C15.5105 11.1107 14.9666 10.5667 14.9666 9.89612C14.9666 9.2255 15.5105 8.68155 16.1812 8.68155ZM7.01594 7.22107C7.42577 7.22107 7.76108 7.55639 7.76108 7.96621C7.76108 8.37604 7.43322 8.71135 7.01594 8.71135C6.60612 8.71135 6.27081 8.37604 6.27081 7.96621C6.27081 7.55639 6.59867 7.22107 7.01594 7.22107ZM11.4868 12.437C11.0695 12.437 10.7342 12.1017 10.7342 11.6919C10.7342 11.2821 11.0695 10.9468 11.4793 10.9468C11.8892 10.9468 12.2245 11.2821 12.2245 11.6919C12.2245 12.1017 11.9041 12.437 11.4868 12.437ZM12.1574 7.66816L7.14262 12.6829C7.03085 12.7947 6.88927 12.8469 6.74769 12.8469C6.60612 12.8469 6.46454 12.7947 6.35277 12.6829C6.13668 12.4669 6.13668 12.1092 6.35277 11.8931L11.3676 6.87831C11.5836 6.66222 11.9413 6.66222 12.1574 6.87831C12.3735 7.0944 12.3735 7.45207 12.1574 7.66816Z" fill="#788197"/>
</svg>
