<svg width="19" height="19" viewBox="0 0 19 19" fill="none" xmlns="http://www.w3.org/2000/svg">
<g clip-path="url(#clip0_2001_4614)">
<path d="M18.4645 15.2528H1.19793C1.02766 15.2528 0.889587 15.1147 0.889587 14.9444V3.84445C0.889587 3.67418 1.02766 3.53611 1.19793 3.53611H18.4646C18.6348 3.53611 18.7729 3.67418 18.7729 3.84445V14.9444C18.7729 15.1147 18.6348 15.2528 18.4645 15.2528Z" fill="#F5F5F5"/>
<path d="M18.7729 4.43743H0.889587V3.84445C0.889587 3.67418 1.02766 3.53611 1.19793 3.53611H18.4646C18.6348 3.53611 18.7729 3.67418 18.7729 3.84445L18.7729 4.43743Z" fill="#FF4B55"/>
<path d="M18.7729 7.14121H0.889587V8.0425H18.7729V7.14121Z" fill="#FF4B55"/>
<path d="M18.7729 5.33857H0.889587V6.23986H18.7729V5.33857Z" fill="#FF4B55"/>
<path d="M18.7729 9.84508H1.19793C1.02766 9.84508 0.889587 9.70701 0.889587 9.53673V8.94375H18.7729V9.84508Z" fill="#FF4B55"/>
<path d="M18.7729 12.5492H0.889587V13.4505H18.7729V12.5492Z" fill="#FF4B55"/>
<path d="M18.4645 15.2528H1.19793C1.02766 15.2528 0.889587 15.1147 0.889587 14.9444V14.3515H18.7729V14.9445C18.7729 15.1147 18.6348 15.2528 18.4645 15.2528Z" fill="#FF4B55"/>
<path d="M18.7729 10.7465H0.889587V11.6478H18.7729V10.7465Z" fill="#FF4B55"/>
<path d="M8.90623 3.53615H1.19793C1.02766 3.53615 0.889587 3.67419 0.889587 3.84446V9.53673C0.889587 9.70701 1.02766 9.84508 1.19793 9.84508H8.90626C9.07654 9.84508 9.21461 9.70701 9.21461 9.53673V3.84446C9.21458 3.67419 9.0765 3.53615 8.90623 3.53615Z" fill="#41479B"/>
<path d="M1.75571 4.24384L1.82396 4.44852L2.03971 4.45016C2.06766 4.45041 2.07922 4.48603 2.05676 4.50262L1.8832 4.63081L1.94831 4.8365C1.95676 4.86312 1.92641 4.88519 1.90367 4.86892L1.72815 4.74349L1.55264 4.86895C1.5299 4.88519 1.49962 4.86315 1.508 4.83654L1.57311 4.63084L1.39955 4.50266C1.37709 4.48603 1.38865 4.45044 1.41659 4.4502L1.63235 4.44855L1.7006 4.24387C1.7094 4.21733 1.74684 4.21733 1.75571 4.24384Z" fill="#F5F5F5"/>
<path d="M1.75556 5.31452L1.82381 5.5192L2.03956 5.52084C2.0675 5.52109 2.07907 5.55672 2.05661 5.57331L1.88305 5.70149L1.94815 5.90719C1.95661 5.9338 1.92625 5.95588 1.90352 5.9396L1.728 5.81417L1.55249 5.93964C1.52975 5.95588 1.49947 5.93384 1.50785 5.90722L1.57295 5.70153L1.3994 5.57334C1.37694 5.55672 1.3885 5.52112 1.41644 5.52088L1.63219 5.51924L1.70044 5.31456C1.70924 5.28805 1.74669 5.28805 1.75556 5.31452Z" fill="#F5F5F5"/>
<path d="M1.75556 6.38522L1.82381 6.5899L2.03956 6.59154C2.0675 6.59178 2.07907 6.62741 2.05661 6.644L1.88305 6.77219L1.94815 6.97788C1.95661 7.00449 1.92625 7.02657 1.90352 7.01029L1.728 6.88487L1.55249 7.01033C1.52975 7.02657 1.49947 7.00453 1.50785 6.97791L1.57295 6.77222L1.3994 6.64404C1.37694 6.62741 1.3885 6.59182 1.41644 6.59157L1.63219 6.58993L1.70044 6.38525C1.70924 6.35874 1.74669 6.35874 1.75556 6.38522Z" fill="#F5F5F5"/>
<path d="M1.75556 7.45596L1.82381 7.66064L2.03956 7.66228C2.0675 7.66253 2.07907 7.69815 2.05661 7.71474L1.88305 7.84293L1.94815 8.04862C1.95661 8.07524 1.92625 8.09731 1.90352 8.08104L1.728 7.95561L1.55249 8.08107C1.52975 8.09731 1.49947 8.07527 1.50785 8.04866L1.57295 7.84296L1.3994 7.71478C1.37694 7.69815 1.3885 7.66256 1.41644 7.66232L1.63219 7.66067L1.70044 7.45599C1.70924 7.42945 1.74669 7.42945 1.75556 7.45596Z" fill="#F5F5F5"/>
<path d="M1.75556 8.52663L1.82381 8.73131L2.03956 8.73296C2.0675 8.7332 2.07907 8.76883 2.05661 8.78542L1.88305 8.9136L1.94815 9.1193C1.95661 9.14591 1.92625 9.16799 1.90352 9.15171L1.728 9.02628L1.55249 9.15175C1.52975 9.16799 1.49947 9.14595 1.50785 9.11933L1.57295 8.91364L1.3994 8.78545C1.37694 8.76883 1.3885 8.73323 1.41644 8.73299L1.63219 8.73135L1.70044 8.52667C1.70924 8.50009 1.74669 8.50009 1.75556 8.52663Z" fill="#F5F5F5"/>
<path d="M2.58658 4.76877L2.65483 4.97345L2.87059 4.97509C2.89853 4.97533 2.91009 5.01096 2.88763 5.02755L2.71407 5.15574L2.77918 5.36143C2.78763 5.38805 2.75728 5.41012 2.73454 5.39384L2.55903 5.26838L2.38351 5.39384C2.36077 5.41008 2.33049 5.38805 2.33887 5.36143L2.40398 5.15574L2.23042 5.02755C2.20796 5.01092 2.21952 4.97533 2.24747 4.97509L2.46322 4.97345L2.53147 4.76877C2.54023 4.74229 2.57775 4.74229 2.58658 4.76877Z" fill="#F5F5F5"/>
<path d="M2.58658 5.83949L2.65483 6.04417L2.87059 6.04581C2.89853 6.04605 2.91009 6.08168 2.88763 6.09827L2.71407 6.22646L2.77918 6.43215C2.78763 6.45876 2.75728 6.48084 2.73454 6.46456L2.55903 6.3391L2.38351 6.46456C2.36077 6.4808 2.33049 6.4588 2.33887 6.43215L2.40398 6.22646L2.23042 6.09827C2.20796 6.08164 2.21952 6.04605 2.24747 6.04581L2.46322 6.04417L2.53147 5.83949C2.54023 5.81298 2.57775 5.81298 2.58658 5.83949Z" fill="#F5F5F5"/>
<path d="M2.58658 6.91018L2.65483 7.11486L2.87059 7.1165C2.89853 7.11675 2.91009 7.15237 2.88763 7.16896L2.71407 7.29715L2.77918 7.50284C2.78763 7.52946 2.75728 7.55153 2.73454 7.53526L2.55903 7.40979L2.38351 7.53526C2.36077 7.5515 2.33049 7.52946 2.33887 7.50284L2.40398 7.29715L2.23042 7.16896C2.20796 7.15234 2.21952 7.11675 2.24747 7.1165L2.46322 7.11486L2.53147 6.91018C2.54023 6.88367 2.57775 6.88367 2.58658 6.91018Z" fill="#F5F5F5"/>
<path d="M2.58658 7.98087L2.65483 8.18555L2.87059 8.1872C2.89853 8.18744 2.91009 8.22307 2.88763 8.23966L2.71407 8.36784L2.77918 8.57354C2.78763 8.60015 2.75728 8.62223 2.73454 8.60595L2.55903 8.48049L2.38351 8.60595C2.36077 8.62219 2.33049 8.60015 2.33887 8.57354L2.40398 8.36784L2.23042 8.23966C2.20796 8.22303 2.21952 8.18744 2.24747 8.1872L2.46322 8.18555L2.53147 7.98087C2.54023 7.9544 2.57775 7.9544 2.58658 7.98087Z" fill="#F5F5F5"/>
<path d="M3.41767 4.24384L3.48592 4.44852L3.70167 4.45016C3.72961 4.4504 3.74118 4.48603 3.71872 4.50262L3.54516 4.63081L3.61026 4.8365C3.61872 4.86311 3.58836 4.88519 3.56563 4.86891L3.39011 4.74345L3.2146 4.86891C3.19186 4.88515 3.16157 4.86311 3.16996 4.8365L3.23506 4.63081L3.06151 4.50262C3.03905 4.48599 3.05061 4.4504 3.07855 4.45016L3.2943 4.44852L3.36255 4.24384C3.37135 4.21733 3.40883 4.21733 3.41767 4.24384Z" fill="#F5F5F5"/>
<path d="M3.41767 5.31453L3.48592 5.51921L3.70167 5.52085C3.72961 5.52109 3.74118 5.55672 3.71872 5.57331L3.54516 5.7015L3.61026 5.90719C3.61872 5.93381 3.58836 5.95588 3.56563 5.9396L3.39011 5.81414L3.2146 5.9396C3.19186 5.95585 3.16157 5.93381 3.16996 5.90719L3.23506 5.7015L3.06151 5.57331C3.03905 5.55668 3.05061 5.52109 3.07855 5.52085L3.2943 5.51921L3.36255 5.31453C3.37135 5.28805 3.40883 5.28805 3.41767 5.31453Z" fill="#F5F5F5"/>
<path d="M3.41767 6.38522L3.48592 6.5899L3.70167 6.59154C3.72961 6.59179 3.74118 6.62741 3.71872 6.64401L3.54516 6.77219L3.61026 6.97789C3.61872 7.0045 3.58836 7.02658 3.56563 7.0103L3.39011 6.88484L3.2146 7.0103C3.19186 7.02654 3.16157 7.0045 3.16996 6.97789L3.23506 6.77219L3.06151 6.64401C3.03905 6.62738 3.05061 6.59179 3.07855 6.59154L3.2943 6.5899L3.36255 6.38522C3.37135 6.35875 3.40883 6.35875 3.41767 6.38522Z" fill="#F5F5F5"/>
<path d="M3.41767 7.45594L3.48592 7.66062L3.70167 7.66226C3.72961 7.66251 3.74118 7.69813 3.71872 7.71472L3.54516 7.84291L3.61026 8.0486C3.61872 8.07522 3.58836 8.09729 3.56563 8.08102L3.39011 7.95555L3.2146 8.08102C3.19186 8.09726 3.16157 8.07522 3.16996 8.0486L3.23506 7.84291L3.06151 7.71472C3.03905 7.6981 3.05061 7.66251 3.07855 7.66226L3.2943 7.66062L3.36255 7.45594C3.37135 7.42943 3.40883 7.42943 3.41767 7.45594Z" fill="#F5F5F5"/>
<path d="M3.41767 8.52664L3.48592 8.73132L3.70167 8.73296C3.72961 8.7332 3.74118 8.76883 3.71872 8.78542L3.54516 8.91361L3.61026 9.1193C3.61872 9.14592 3.58836 9.16799 3.56563 9.15171L3.39011 9.02625L3.2146 9.15171C3.19186 9.16796 3.16157 9.14592 3.16996 9.1193L3.23506 8.91361L3.06151 8.78542C3.03905 8.7688 3.05061 8.7332 3.07855 8.73296L3.2943 8.73132L3.36255 8.52664C3.37135 8.50009 3.40883 8.50009 3.41767 8.52664Z" fill="#F5F5F5"/>
<path d="M4.24878 4.76877L4.31703 4.97345L4.53279 4.97509C4.56073 4.97533 4.57229 5.01096 4.54983 5.02755L4.37627 5.15574L4.44138 5.36143C4.44983 5.38805 4.41948 5.41012 4.39674 5.39384L4.22123 5.26838L4.04571 5.39384C4.02297 5.41008 3.99269 5.38805 4.00107 5.36143L4.06618 5.15574L3.89262 5.02755C3.87016 5.01092 3.88172 4.97533 3.90967 4.97509L4.12542 4.97345L4.19367 4.76877C4.20244 4.74229 4.23995 4.74229 4.24878 4.76877Z" fill="#F5F5F5"/>
<path d="M4.24878 5.83949L4.31703 6.04417L4.53279 6.04581C4.56073 6.04605 4.57229 6.08168 4.54983 6.09827L4.37627 6.22646L4.44138 6.43215C4.44983 6.45876 4.41948 6.48084 4.39674 6.46456L4.22123 6.3391L4.04571 6.46456C4.02297 6.4808 3.99269 6.4588 4.00107 6.43215L4.06618 6.22646L3.89262 6.09827C3.87016 6.08164 3.88172 6.04605 3.90967 6.04581L4.12542 6.04417L4.19367 5.83949C4.20244 5.81298 4.23995 5.81298 4.24878 5.83949Z" fill="#F5F5F5"/>
<path d="M4.24878 6.91018L4.31703 7.11486L4.53279 7.1165C4.56073 7.11675 4.57229 7.15237 4.54983 7.16896L4.37627 7.29715L4.44138 7.50284C4.44983 7.52946 4.41948 7.55153 4.39674 7.53526L4.22123 7.40979L4.04571 7.53526C4.02297 7.5515 3.99269 7.52946 4.00107 7.50284L4.06618 7.29715L3.89262 7.16896C3.87016 7.15234 3.88172 7.11675 3.90967 7.1165L4.12542 7.11486L4.19367 6.91018C4.20244 6.88367 4.23995 6.88367 4.24878 6.91018Z" fill="#F5F5F5"/>
<path d="M4.24878 7.98087L4.31703 8.18555L4.53279 8.1872C4.56073 8.18744 4.57229 8.22307 4.54983 8.23966L4.37627 8.36784L4.44138 8.57354C4.44983 8.60015 4.41948 8.62223 4.39674 8.60595L4.22123 8.48049L4.04571 8.60595C4.02297 8.62219 3.99269 8.60015 4.00107 8.57354L4.06618 8.36784L3.89262 8.23966C3.87016 8.22303 3.88172 8.18744 3.90967 8.1872L4.12542 8.18555L4.19367 7.98087C4.20244 7.9544 4.23995 7.9544 4.24878 7.98087Z" fill="#F5F5F5"/>
<path d="M5.07978 4.24384L5.14803 4.44852L5.36378 4.45016C5.39173 4.4504 5.40329 4.48603 5.38083 4.50262L5.20727 4.63081L5.27238 4.8365C5.28083 4.86311 5.25048 4.88519 5.22774 4.86891L5.05219 4.74345L4.87668 4.86891C4.85394 4.88515 4.82365 4.86311 4.83204 4.8365L4.89714 4.63081L4.72358 4.50262C4.70113 4.48599 4.71269 4.4504 4.74063 4.45016L4.95638 4.44852L5.02463 4.24384C5.03347 4.21733 5.07095 4.21733 5.07978 4.24384Z" fill="#F5F5F5"/>
<path d="M5.07978 5.31453L5.14803 5.51921L5.36378 5.52085C5.39173 5.52109 5.40329 5.55672 5.38083 5.57331L5.20727 5.7015L5.27238 5.90719C5.28083 5.93381 5.25048 5.95588 5.22774 5.9396L5.05219 5.81414L4.87668 5.9396C4.85394 5.95585 4.82365 5.93381 4.83204 5.90719L4.89714 5.7015L4.72358 5.57331C4.70113 5.55668 4.71269 5.52109 4.74063 5.52085L4.95638 5.51921L5.02463 5.31453C5.03347 5.28805 5.07095 5.28805 5.07978 5.31453Z" fill="#F5F5F5"/>
<path d="M5.07978 6.38522L5.14803 6.5899L5.36378 6.59154C5.39173 6.59179 5.40329 6.62741 5.38083 6.64401L5.20727 6.77219L5.27238 6.97789C5.28083 7.0045 5.25048 7.02658 5.22774 7.0103L5.05219 6.88484L4.87668 7.0103C4.85394 7.02654 4.82365 7.0045 4.83204 6.97789L4.89714 6.77219L4.72358 6.64401C4.70113 6.62738 4.71269 6.59179 4.74063 6.59154L4.95638 6.5899L5.02463 6.38522C5.03347 6.35875 5.07095 6.35875 5.07978 6.38522Z" fill="#F5F5F5"/>
<path d="M5.07978 7.45594L5.14803 7.66062L5.36378 7.66226C5.39173 7.66251 5.40329 7.69813 5.38083 7.71472L5.20727 7.84291L5.27238 8.0486C5.28083 8.07522 5.25048 8.09729 5.22774 8.08102L5.05219 7.95555L4.87668 8.08102C4.85394 8.09726 4.82365 8.07522 4.83204 8.0486L4.89714 7.84291L4.72358 7.71472C4.70113 7.6981 4.71269 7.66251 4.74063 7.66226L4.95638 7.66062L5.02463 7.45594C5.03347 7.42943 5.07095 7.42943 5.07978 7.45594Z" fill="#F5F5F5"/>
<path d="M5.07978 8.52664L5.14803 8.73132L5.36378 8.73296C5.39173 8.7332 5.40329 8.76883 5.38083 8.78542L5.20727 8.91361L5.27238 9.1193C5.28083 9.14592 5.25048 9.16799 5.22774 9.15171L5.05219 9.02625L4.87668 9.15171C4.85394 9.16796 4.82365 9.14592 4.83204 9.1193L4.89714 8.91361L4.72358 8.78542C4.70113 8.7688 4.71269 8.7332 4.74063 8.73296L4.95638 8.73132L5.02463 8.52664C5.03347 8.50009 5.07095 8.50009 5.07978 8.52664Z" fill="#F5F5F5"/>
<path d="M5.91086 4.76877L5.97911 4.97345L6.19487 4.97509C6.22281 4.97533 6.23437 5.01096 6.21191 5.02755L6.03835 5.15574L6.10346 5.36143C6.11191 5.38805 6.08156 5.41012 6.05882 5.39384L5.88331 5.26838L5.70779 5.39384C5.68505 5.41008 5.65477 5.38805 5.66315 5.36143L5.72826 5.15574L5.5547 5.02755C5.53224 5.01092 5.5438 4.97533 5.57175 4.97509L5.7875 4.97345L5.85575 4.76877C5.86458 4.74229 5.90203 4.74229 5.91086 4.76877Z" fill="#F5F5F5"/>
<path d="M5.91086 5.83949L5.97911 6.04417L6.19487 6.04581C6.22281 6.04605 6.23437 6.08168 6.21191 6.09827L6.03835 6.22646L6.10346 6.43215C6.11191 6.45876 6.08156 6.48084 6.05882 6.46456L5.88331 6.3391L5.70779 6.46456C5.68505 6.4808 5.65477 6.4588 5.66315 6.43215L5.72826 6.22646L5.5547 6.09827C5.53224 6.08164 5.5438 6.04605 5.57175 6.04581L5.7875 6.04417L5.85575 5.83949C5.86458 5.81298 5.90203 5.81298 5.91086 5.83949Z" fill="#F5F5F5"/>
<path d="M5.91086 6.91018L5.97911 7.11486L6.19487 7.1165C6.22281 7.11675 6.23437 7.15237 6.21191 7.16896L6.03835 7.29715L6.10346 7.50284C6.11191 7.52946 6.08156 7.55153 6.05882 7.53526L5.88331 7.40979L5.70779 7.53526C5.68505 7.5515 5.65477 7.52946 5.66315 7.50284L5.72826 7.29715L5.5547 7.16896C5.53224 7.15234 5.5438 7.11675 5.57175 7.1165L5.7875 7.11486L5.85575 6.91018C5.86458 6.88367 5.90203 6.88367 5.91086 6.91018Z" fill="#F5F5F5"/>
<path d="M5.91086 7.98087L5.97911 8.18555L6.19487 8.1872C6.22281 8.18744 6.23437 8.22307 6.21191 8.23966L6.03835 8.36784L6.10346 8.57354C6.11191 8.60015 6.08156 8.62223 6.05882 8.60595L5.88331 8.48049L5.70779 8.60595C5.68505 8.62219 5.65477 8.60015 5.66315 8.57354L5.72826 8.36784L5.5547 8.23966C5.53224 8.22303 5.5438 8.18744 5.57175 8.1872L5.7875 8.18555L5.85575 7.98087C5.86458 7.9544 5.90203 7.9544 5.91086 7.98087Z" fill="#F5F5F5"/>
<path d="M6.74195 4.24384L6.8102 4.44852L7.02595 4.45016C7.05389 4.4504 7.06546 4.48603 7.043 4.50262L6.86944 4.63081L6.93454 4.8365C6.943 4.86311 6.91264 4.88519 6.88991 4.86891L6.71439 4.74345L6.53888 4.86891C6.51614 4.88515 6.48585 4.86311 6.49424 4.8365L6.55934 4.63081L6.38579 4.50262C6.36333 4.48599 6.37489 4.4504 6.40283 4.45016L6.61858 4.44852L6.68683 4.24384C6.6956 4.21733 6.73311 4.21733 6.74195 4.24384Z" fill="#F5F5F5"/>
<path d="M6.74195 5.31453L6.8102 5.51921L7.02595 5.52085C7.05389 5.52109 7.06546 5.55672 7.043 5.57331L6.86944 5.7015L6.93454 5.90719C6.943 5.93381 6.91264 5.95588 6.88991 5.9396L6.71439 5.81414L6.53888 5.9396C6.51614 5.95585 6.48585 5.93381 6.49424 5.90719L6.55934 5.7015L6.38579 5.57331C6.36333 5.55668 6.37489 5.52109 6.40283 5.52085L6.61858 5.51921L6.68683 5.31453C6.6956 5.28805 6.73311 5.28805 6.74195 5.31453Z" fill="#F5F5F5"/>
<path d="M6.74195 6.38522L6.8102 6.5899L7.02595 6.59154C7.05389 6.59179 7.06546 6.62741 7.043 6.64401L6.86944 6.77219L6.93454 6.97789C6.943 7.0045 6.91264 7.02658 6.88991 7.0103L6.71439 6.88484L6.53888 7.0103C6.51614 7.02654 6.48585 7.0045 6.49424 6.97789L6.55934 6.77219L6.38579 6.64401C6.36333 6.62738 6.37489 6.59179 6.40283 6.59154L6.61858 6.5899L6.68683 6.38522C6.6956 6.35875 6.73311 6.35875 6.74195 6.38522Z" fill="#F5F5F5"/>
<path d="M6.74195 7.45594L6.8102 7.66062L7.02595 7.66226C7.05389 7.66251 7.06546 7.69813 7.043 7.71472L6.86944 7.84291L6.93454 8.0486C6.943 8.07522 6.91264 8.09729 6.88991 8.08102L6.71439 7.95555L6.53888 8.08102C6.51614 8.09726 6.48585 8.07522 6.49424 8.0486L6.55934 7.84291L6.38579 7.71472C6.36333 7.6981 6.37489 7.66251 6.40283 7.66226L6.61858 7.66062L6.68683 7.45594C6.6956 7.42943 6.73311 7.42943 6.74195 7.45594Z" fill="#F5F5F5"/>
<path d="M6.74195 8.52664L6.8102 8.73132L7.02595 8.73296C7.05389 8.7332 7.06546 8.76883 7.043 8.78542L6.86944 8.91361L6.93454 9.1193C6.943 9.14592 6.91264 9.16799 6.88991 9.15171L6.71439 9.02625L6.53888 9.15171C6.51614 9.16796 6.48585 9.14592 6.49424 9.1193L6.55934 8.91361L6.38579 8.78542C6.36333 8.7688 6.37489 8.7332 6.40283 8.73296L6.61858 8.73132L6.68683 8.52664C6.6956 8.50009 6.73311 8.50009 6.74195 8.52664Z" fill="#F5F5F5"/>
<path d="M7.57297 4.76877L7.64122 4.97345L7.85698 4.97509C7.88492 4.97533 7.89648 5.01096 7.87402 5.02755L7.70046 5.15574L7.76557 5.36143C7.77402 5.38805 7.74367 5.41012 7.72093 5.39384L7.54541 5.26838L7.3699 5.39384C7.34716 5.41008 7.31688 5.38805 7.32526 5.36143L7.39037 5.15574L7.21681 5.02755C7.19435 5.01092 7.20591 4.97533 7.23385 4.97509L7.44961 4.97345L7.51786 4.76877C7.52666 4.74229 7.56417 4.74229 7.57297 4.76877Z" fill="#F5F5F5"/>
<path d="M7.57297 5.83949L7.64122 6.04417L7.85698 6.04581C7.88492 6.04605 7.89648 6.08168 7.87402 6.09827L7.70046 6.22646L7.76557 6.43215C7.77402 6.45876 7.74367 6.48084 7.72093 6.46456L7.54541 6.3391L7.3699 6.46456C7.34716 6.4808 7.31688 6.4588 7.32526 6.43215L7.39037 6.22646L7.21681 6.09827C7.19435 6.08164 7.20591 6.04605 7.23385 6.04581L7.44961 6.04417L7.51786 5.83949C7.52666 5.81298 7.56417 5.81298 7.57297 5.83949Z" fill="#F5F5F5"/>
<path d="M7.57297 6.91018L7.64122 7.11486L7.85698 7.1165C7.88492 7.11675 7.89648 7.15237 7.87402 7.16896L7.70046 7.29715L7.76557 7.50284C7.77402 7.52946 7.74367 7.55153 7.72093 7.53526L7.54541 7.40979L7.3699 7.53526C7.34716 7.5515 7.31688 7.52946 7.32526 7.50284L7.39037 7.29715L7.21681 7.16896C7.19435 7.15234 7.20591 7.11675 7.23385 7.1165L7.44961 7.11486L7.51786 6.91018C7.52666 6.88367 7.56417 6.88367 7.57297 6.91018Z" fill="#F5F5F5"/>
<path d="M7.57297 7.98087L7.64122 8.18555L7.85698 8.1872C7.88492 8.18744 7.89648 8.22307 7.87402 8.23966L7.70046 8.36784L7.76557 8.57354C7.77402 8.60015 7.74367 8.62223 7.72093 8.60595L7.54541 8.48049L7.3699 8.60595C7.34716 8.62219 7.31688 8.60015 7.32526 8.57354L7.39037 8.36784L7.21681 8.23966C7.19435 8.22303 7.20591 8.18744 7.23385 8.1872L7.44961 8.18555L7.51786 7.98087C7.52666 7.9544 7.56417 7.9544 7.57297 7.98087Z" fill="#F5F5F5"/>
<path d="M8.40406 4.24384L8.47231 4.44852L8.68806 4.45016C8.716 4.4504 8.72756 4.48603 8.70511 4.50262L8.53155 4.63081L8.59665 4.8365C8.60511 4.86311 8.57475 4.88519 8.55201 4.86891L8.3765 4.74345L8.20099 4.86891C8.17825 4.88515 8.14796 4.86311 8.15635 4.8365L8.22145 4.63081L8.04789 4.50262C8.02544 4.48599 8.037 4.4504 8.06494 4.45016L8.28069 4.44852L8.34894 4.24384C8.35774 4.21733 8.39519 4.21733 8.40406 4.24384Z" fill="#F5F5F5"/>
<path d="M8.40406 5.31453L8.47231 5.51921L8.68806 5.52085C8.716 5.52109 8.72756 5.55672 8.70511 5.57331L8.53155 5.7015L8.59665 5.90719C8.60511 5.93381 8.57475 5.95588 8.55201 5.9396L8.3765 5.81414L8.20099 5.9396C8.17825 5.95585 8.14796 5.93381 8.15635 5.90719L8.22145 5.7015L8.04789 5.57331C8.02544 5.55668 8.037 5.52109 8.06494 5.52085L8.28069 5.51921L8.34894 5.31453C8.35774 5.28805 8.39519 5.28805 8.40406 5.31453Z" fill="#F5F5F5"/>
<path d="M8.40406 6.38522L8.47231 6.5899L8.68806 6.59154C8.716 6.59179 8.72756 6.62741 8.70511 6.64401L8.53155 6.77219L8.59665 6.97789C8.60511 7.0045 8.57475 7.02658 8.55201 7.0103L8.3765 6.88484L8.20099 7.0103C8.17825 7.02654 8.14796 7.0045 8.15635 6.97789L8.22145 6.77219L8.04789 6.64401C8.02544 6.62738 8.037 6.59179 8.06494 6.59154L8.28069 6.5899L8.34894 6.38522C8.35774 6.35875 8.39519 6.35875 8.40406 6.38522Z" fill="#F5F5F5"/>
<path d="M8.40406 7.45594L8.47231 7.66062L8.68806 7.66226C8.716 7.66251 8.72756 7.69813 8.70511 7.71472L8.53155 7.84291L8.59665 8.0486C8.60511 8.07522 8.57475 8.09729 8.55201 8.08102L8.3765 7.95555L8.20099 8.08102C8.17825 8.09726 8.14796 8.07522 8.15635 8.0486L8.22145 7.84291L8.04789 7.71472C8.02544 7.6981 8.037 7.66251 8.06494 7.66226L8.28069 7.66062L8.34894 7.45594C8.35774 7.42943 8.39519 7.42943 8.40406 7.45594Z" fill="#F5F5F5"/>
<path d="M8.40406 8.52664L8.47231 8.73132L8.68806 8.73296C8.716 8.7332 8.72756 8.76883 8.70511 8.78542L8.53155 8.91361L8.59665 9.1193C8.60511 9.14592 8.57475 9.16799 8.55201 9.15171L8.3765 9.02625L8.20099 9.15171C8.17825 9.16796 8.14796 9.14592 8.15635 9.1193L8.22145 8.91361L8.04789 8.78542C8.02544 8.7688 8.037 8.7332 8.06494 8.73296L8.28069 8.73132L8.34894 8.52664C8.35774 8.50009 8.39519 8.50009 8.40406 8.52664Z" fill="#F5F5F5"/>
</g>
<defs>
<clipPath id="clip0_2001_4614">
<rect width="17.8833" height="17.8833" fill="white" transform="translate(0.889587 0.452778)"/>
</clipPath>
</defs>
</svg>
